<?xml version="1.0" standalone="no"?><!DOCTYPE svg PUBLIC "-//W3C//DTD SVG 1.1//EN" "http://www.w3.org/Graphics/SVG/1.1/DTD/svg11.dtd"><svg t="1618994812097" class="icon" viewBox="0 0 1024 1024" version="1.1" xmlns="http://www.w3.org/2000/svg" p-id="7736" xmlns:xlink="http://www.w3.org/1999/xlink" width="200" height="200"><defs><style type="text/css"></style></defs><path d="M512 96c229.76 0 416 186.24 416 416s-186.24 416-416 416S96 741.76 96 512 282.24 96 512 96z m0 64C317.6 160 160 317.6 160 512s157.6 352 352 352 352-157.6 352-352S706.4 160 512 160z m0 128c56.032 0 108.96 20.704 149.76 57.44a225.024 225.024 0 0 1 40.224 47.872l-54.336 33.92-2.016-3.264a160.96 160.96 0 0 0-20.704-25.312l-5.952-5.632a160 160 0 1 0 26.688 206.976l2.048-3.2 54.176 33.888-2.816 4.576c-8.352 12.64-17.952 24.416-28.672 35.104l-8.224 7.84A224 224 0 1 1 512 288z" fill="#aaaaaa" p-id="7737"></path></svg>