<svg t="1620737999559" class="icon" viewBox="0 0 1024 1024" version="1.1" xmlns="http://www.w3.org/2000/svg" p-id="5938" width="200" height="200"><path d="M647.808 546.176h238.944v68.288h-238.944v-68.288z m0-136.544h238.944v68.256h-238.944v-68.256z m0 273.088h238.944v68.256h-238.944v-68.256zM2.688 288.032v546.176h546.24V288.032H2.688z m347.456 428.736L275.84 605.696l-33.44 50.048H275.84v61.024H107.904l121.952-179.648-108-161.632h90.144l63.936 94.016 63.808-94.016h90.112l-108.16 161.568 122.016 179.712h-93.568zM969.824 181.536l-129.984-130.048C811.488 23.232 755.648 0 715.552 0H246.784a72.96 72.96 0 0 0-72.768 72.768v146.944h58.208V72.768c0-7.904 6.784-14.528 14.624-14.528h468.768c4.32 0 9.312 0.544 14.56 1.568V291.2h231.424c1.024 5.248 1.568 33.984 1.568 38.4v621.6a14.784 14.784 0 0 1-14.592 14.56H246.784a14.848 14.848 0 0 1-14.624-14.56V902.4H173.952v48.8A72.896 72.896 0 0 0 246.688 1024h701.856a72.896 72.896 0 0 0 72.768-72.768V329.696c0.064-40.096-23.136-119.872-51.488-148.16z m-181.472 51.488V84.256c3.68 2.464 7.104 5.344 10.176 8.448l129.984 129.984c3.136 3.2 6.016 6.656 8.576 10.336h-148.736z" p-id="5939"></path></svg>