<svg t="1607494068784" class="icon" viewBox="0 0 1024 1024" version="1.1" xmlns="http://www.w3.org/2000/svg" p-id="3162" width="500" height="500"><path d="M937.386667 488.106667L772.266667 372.48c-12.8-9.386667-30.293333-6.826667-40.106667 5.546667-3.84 4.693333-5.546667 10.666667-5.546667 17.066666v233.813334c0 22.613333 25.6 36.693333 45.653334 22.613333l165.546666-115.626667c14.08-14.08 14.08-36.693333-0.426666-47.786666zM914.346667 213.333333h-785.066667c-18.773333 0-34.133333-15.36-34.133333-34.133333s15.36-34.133333 34.133333-34.133333h785.066667c18.773333 0 34.133333 15.36 34.133333 34.133333s-14.933333 34.133333-34.133333 34.133333zM914.346667 878.933333h-785.066667c-18.773333 0-34.133333-15.36-34.133333-34.133333s15.36-34.133333 34.133333-34.133333h785.066667c18.773333 0 34.133333 15.36 34.133333 34.133333s-14.933333 34.133333-34.133333 34.133333zM624.213333 435.2h-494.933333c-18.773333 0-34.133333-15.36-34.133333-34.133333s15.36-34.133333 34.133333-34.133334h494.933333c18.773333 0 34.133333 15.36 34.133334 34.133334s-14.933333 34.133333-34.133334 34.133333zM624.64 657.066667H129.28c-18.773333 0-34.133333-15.36-34.133333-34.133334s15.36-34.133333 34.133333-34.133333h495.36c18.773333 0 34.133333 15.36 34.133333 34.133333v0.426667c-0.426667 18.346667-15.36 33.706667-34.133333 33.706667z" p-id="3163"></path></svg>