<svg t="1607652751619" class="icon" viewBox="0 0 1024 1024" version="1.1" xmlns="http://www.w3.org/2000/svg" p-id="3287" width="500" height="500"><path d="M570.3 34c-30.6-27.7-77.2-27.7-107.8 0L26.8 447.8c-16.2 14.9-17.4 40.1-2.7 56.5 14.8 16.4 40 17.8 56.5 3.2l6.9-6.6v431.8c0 21.3 8.4 41.8 23.5 56.9 15.1 15.1 35.5 23.6 56.9 23.6h233.9v-242c0-15 5.9-29.4 16.6-40.1 10.6-10.6 25-16.6 40.1-16.6h110.1c15 0 29.4 6 40.1 16.6 10.6 10.6 16.6 25.1 16.6 40.1v242h239.5c21.3 0 41.8-8.5 56.9-23.6 15.1-15.1 23.5-35.6 23.5-56.9V506.2c17.9 16.2 43.2 14.9 58.1-1.6 7.1-7.9 10.9-18.3 10.3-29-0.5-10.6-5.3-20.6-13.2-27.8L570.3 34z" p-id="3288"></path></svg>