<?xml version="1.0" standalone="no"?><!DOCTYPE svg PUBLIC "-//W3C//DTD SVG 1.1//EN" "http://www.w3.org/Graphics/SVG/1.1/DTD/svg11.dtd"><svg t="1615282139607" class="icon" viewBox="0 0 1024 1024" version="1.1" xmlns="http://www.w3.org/2000/svg" p-id="3702" xmlns:xlink="http://www.w3.org/1999/xlink" width="200" height="200"><defs><style type="text/css"></style></defs><path d="M842.666667 663.466667c-17.066667-8.533333-27.733333-19.2-36.266667-36.266667-14.933333-32-12.8-72.533333-10.666667-117.333333 2.133333-32 4.266667-64 0-93.866667-8.533333-59.733333-32-110.933333-64-153.6-46.933333-57.6-115.2-96-187.733333-104.533333v-21.333334c0-17.066667-14.933333-32-32-32s-32 14.933333-32 32v23.466667c-23.466667 2.133333-46.933333 8.533333-70.4 17.066667-81.066667 34.133333-147.2 104.533333-172.8 194.133333-12.8 44.8-10.666667 87.466667-8.533333 132.266667 2.133333 49.066667 6.4 96-14.933334 132.266666-6.4 12.8-14.933333 17.066667-36.266666 25.6-29.866667 14.933333-49.066667 44.8-49.066667 78.933334 2.133333 42.666667 36.266667 78.933333 81.066667 78.933333h164.266666C384 887.466667 441.6 938.666667 512 938.666667s130.133333-53.333333 138.666667-119.466667h164.266666c44.8 0 78.933333-36.266667 78.933334-81.066667 2.133333-46.933333-34.133333-66.133333-51.2-74.666666zM512 876.8c-36.266667 0-64-23.466667-74.666667-55.466667h147.2c-8.533333 32-36.266667 55.466667-72.533333 55.466667z m302.933333-121.6H209.066667c-8.533333 0-14.933333-8.533333-17.066667-17.066667 0-8.533333 4.266667-14.933333 10.666667-17.066666 21.333333-8.533333 46.933333-21.333333 64-53.333334 32-53.333333 27.733333-113.066667 23.466666-168.533333-2.133333-38.4-4.266667-76.8 4.266667-108.8 21.333333-70.4 72.533333-125.866667 136.533333-151.466667 23.466667-10.666667 49.066667-14.933333 74.666667-14.933333h2.133333c64 0 128 29.866667 170.666667 83.2 25.6 32 44.8 74.666667 51.2 121.6 4.266667 23.466667 2.133333 51.2 0 81.066667-2.133333 49.066667-6.4 100.266667 17.066667 147.2 12.8 27.733333 34.133333 51.2 64 64 17.066667 8.533333 17.066667 10.666667 17.066666 17.066666 4.266667 10.666667-2.133333 17.066667-12.8 17.066667z" p-id="3703"></path></svg>