<?xml version="1.0" standalone="no"?><!DOCTYPE svg PUBLIC "-//W3C//DTD SVG 1.1//EN" "http://www.w3.org/Graphics/SVG/1.1/DTD/svg11.dtd"><svg t="1615280992509" class="icon" viewBox="0 0 1024 1024" version="1.1" xmlns="http://www.w3.org/2000/svg" p-id="2128" xmlns:xlink="http://www.w3.org/1999/xlink" width="200" height="200"><defs><style type="text/css"></style></defs><path d="M181 357.5V181.2h176.4c14.3 0 25.9-11.6 25.9-25.9v-31.1c0-14.3-11.6-25.9-25.9-25.9H118c-11 0-20 9-20 20v239.4c0 14.3 11.6 25.9 25.9 25.9H155c14.4-0.1 26-11.7 26-26.1zM668.6 181.2H845v176.4c0 14.3 11.6 25.9 25.9 25.9H902c14.3 0 25.9-11.6 25.9-25.9V118.2c0-11-9-20-20-20H668.6c-14.3 0-25.9 11.6-25.9 25.9v31.1c0 14.3 11.6 26 25.9 26zM357.4 845.2H181V668.8c0-14.3-11.6-25.9-25.9-25.9H124c-14.3 0-25.9 11.6-25.9 25.9v239.4c0 11 9 20 20 20h239.4c14.3 0 25.9-11.6 25.9-25.9v-31.1c-0.1-14.4-11.7-26-26-26zM845 668.8v176.4H668.6c-14.3 0-25.9 11.6-25.9 25.9v31.1c0 14.3 11.6 25.9 25.9 25.9H908c11 0 20-9 20-20V668.8c0-14.3-11.6-25.9-25.9-25.9H871c-14.4 0-26 11.6-26 25.9z" p-id="2129"></path></svg>