<?xml version="1.0" standalone="no"?><!DOCTYPE svg PUBLIC "-//W3C//DTD SVG 1.1//EN" "http://www.w3.org/Graphics/SVG/1.1/DTD/svg11.dtd"><svg t="1615282451241" class="icon" viewBox="0 0 1024 1024" version="1.1" xmlns="http://www.w3.org/2000/svg" p-id="4530" xmlns:xlink="http://www.w3.org/1999/xlink" width="200" height="200"><defs><style type="text/css"></style></defs><path d="M952.714444 906.347416 711.496613 645.027759c46.89403-60.934814 74.8088-137.192615 74.8088-219.845057 0-199.135386-162.027234-361.161596-361.161596-361.161596S63.981197 226.047316 63.981197 425.182702s162.027234 361.161596 361.161596 361.161596c92.815919 0 177.566138-35.20378 241.609757-92.954065l237.694587 257.502725c6.476505 7.011694 15.304568 10.559497 24.13263 10.559497 7.973602 0 15.96767-2.885723 22.273283-8.700149C964.17138 940.440909 965.005374 919.685189 952.714444 906.347416zM425.143816 720.67874c-162.946163 0-295.496038-132.549875-295.496038-295.496038S262.197654 129.686664 425.143816 129.686664s295.496038 132.549875 295.496038 295.496038S588.089979 720.67874 425.143816 720.67874z" p-id="4531"></path></svg>