<svg t="1619078806121" class="icon" viewBox="0 0 1029 1024" version="1.1" xmlns="http://www.w3.org/2000/svg" p-id="4198" width="200" height="200"><path d="M839.909965 641.872136l-11.667803-8.750853a87.508528 87.508528 0 0 1-36.461887-94.071668 274.922625 274.922625 0 0 0-236.273025-303.362897 281.485765 281.485765 0 0 0-320.135365 242.106928 277.839576 277.839576 0 0 0 328.15698 309.196798 45.941977 45.941977 0 0 1 48.858928 16.043231c10.209328 10.209328 22.60637 18.960181 37.920362 32.08646-43.025026 21.877132-43.754264 56.880543-41.566551 93.34243s-3.646189 72.923773-39.378838 83.133101a127.616603 127.616603 0 0 1-118.136512-4.375426A113.761086 113.761086 0 0 1 419.139793 951.068934a251.587018 251.587018 0 0 1 0-52.505116 59.797494 59.797494 0 0 0-39.378837-59.068257 59.068256 59.068256 0 0 0-72.923773 13.126279c-13.126279 12.397041-24.794083 24.794083-37.920363 36.461887a72.923773 72.923773 0 0 1-86.050052 11.667804 327.427742 327.427742 0 0 1-59.797494-59.068257 72.923773 72.923773 0 0 1 11.667804-85.320814c11.667804-13.126279 24.794083-24.794083 37.191124-37.191125a61.25597 61.25597 0 0 0 16.04323-64.902158 61.985207 61.985207 0 0 0-53.234354-44.483502 573.910096 573.910096 0 0 0-61.25597 0 68.548347 68.548347 0 0 1-72.923773-72.923773 381.391334 381.391334 0 0 1 0-40.837313 72.923773 72.923773 0 0 1 72.923773-72.923773h49.588166a62.714445 62.714445 0 0 0 59.797494-40.108076 61.25597 61.25597 0 0 0-16.04323-72.923773c-11.667804-10.938566-21.877132-21.877132-32.815698-33.544936a66.360634 66.360634 0 0 1-13.126279-15.313992C103.379855 221.831201 117.235372 178.806175 171.198964 134.322673a72.923773 72.923773 0 0 1 101.364045 3.646189l37.191125 36.461887a61.985207 61.985207 0 0 0 72.923773 12.397041 56.151305 56.151305 0 0 0 37.191124-56.880543V74.525179A72.923773 72.923773 0 0 1 480.395763 3.059882a218.77132 218.77132 0 0 1 72.923773 0 72.923773 72.923773 0 0 1 58.339019 67.089871v58.339019a64.17292 64.17292 0 0 0 40.837313 58.339018 60.526732 60.526732 0 0 0 72.923773-16.04323l18.230944-21.877132a182.309433 182.309433 0 0 1 17.501705-16.04323c39.378838-29.898747 81.674626-17.501706 129.804317 37.191124a72.923773 72.923773 0 0 1-5.104664 104.280996c-11.667804 12.397041-25.523321 24.794083-35.732649 37.920362a61.25597 61.25597 0 0 0-10.209329 72.923774 63.443683 63.443683 0 0 0 59.797494 35.732648H951.483339a72.923773 72.923773 0 0 1 72.923773 62.714446 242.106927 242.106927 0 0 1 0 64.902158 72.923773 72.923773 0 0 1-72.923773 62.714445h-35.003412a78.757675 78.757675 0 0 0-72.923773 32.815698zM316.317273 461.750416l72.923773 72.923773a103.551758 103.551758 0 0 0 153.869162 0 100.634807 100.634807 0 0 0 0-153.869162c-24.794083-24.064845-51.046641-47.400453-72.923773-72.923773a189.601811 189.601811 0 0 1 171.370867 26.981796A206.374278 206.374278 0 0 1 713.751838 586.450068a32.08646 32.08646 0 0 0 9.48009 37.920362c61.25597 59.068256 121.782701 118.136513 181.580196 177.934007a66.360634 66.360634 0 0 1 0 106.468709 64.902158 64.902158 0 0 1-99.176332-5.833902c-60.526732-59.068256-121.053464-118.86575-180.850958-179.392482a36.461887 36.461887 0 0 0-44.483502-10.938566A199.811139 199.811139 0 0 1 368.093152 665.936981a209.291229 209.291229 0 0 1-60.526732-198.352664l8.750853-5.833901z m539.635923 355.868013a35.732649 35.732649 0 1 0 0 72.923773 35.003411 35.003411 0 0 0 35.732648-35.003411c-0.729238-26.981796-13.126279-36.461887-35.732648-37.920362z" p-id="4199"></path></svg>