<svg t="1619080213743" class="icon" viewBox="0 0 1024 1024" version="1.1" xmlns="http://www.w3.org/2000/svg" p-id="8811" width="200" height="200"><path d="M1016.992 855.408l0.288-0.176-464-752-0.288 0.16A47.76 47.76 0 0 0 512 80a47.888 47.888 0 0 0-40.144 21.792l-0.272-0.16-464 752 0.272 0.16A47.792 47.792 0 0 0 0 880a48 48 0 0 0 48 48l0.432-0.048v0.48h928v-0.48A47.968 47.968 0 0 0 1024 880c0-9.024-2.64-17.376-7.008-24.592zM512 832a64 64 0 1 1 0-128 64 64 0 0 1 0 128z m64-240a64 64 0 0 1-128 0V352a64 64 0 0 1 128 0v240z" fill="" p-id="8812"></path></svg>